<mxfile host="Electron" agent="Mozilla/5.0 (Windows NT 10.0; Win64; x64) AppleWebKit/537.36 (KHTML, like Gecko) draw.io/26.2.15 Chrome/134.0.6998.205 Electron/35.2.1 Safari/537.36" version="26.2.15">
  <diagram name="Page-1" id="aSxiX9hRWUhM6f5bG4QM">
    <mxGraphModel dx="1426" dy="849" grid="1" gridSize="10" guides="1" tooltips="1" connect="1" arrows="1" fold="1" page="1" pageScale="1" pageWidth="850" pageHeight="1100" math="0" shadow="0">
      <root>
        <mxCell id="0" />
        <mxCell id="1" parent="0" />
        <mxCell id="GeGmlqc68hpUA01Pta-K-1" value="&lt;div&gt;📂 echo-app&lt;/div&gt;" style="swimlane;whiteSpace=wrap;html=1;fontSize=19;startSize=30;fillColor=light-dark(#F4F4F6,#1F1F25);strokeWidth=2;strokeColor=light-dark(#2E8555,#25C2A0);" vertex="1" parent="1">
          <mxGeometry x="170" y="180" width="680" height="490" as="geometry" />
        </mxCell>
        <mxCell id="GeGmlqc68hpUA01Pta-K-3" value="&lt;span style=&quot;font-size: 19px;&quot;&gt;📂 gradle&lt;/span&gt;" style="swimlane;whiteSpace=wrap;html=1;startSize=30;strokeWidth=2;fillColor=light-dark(#E8F5E9,#113D15);strokeColor=light-dark(#66BB6A,#2E7D32);" vertex="1" parent="GeGmlqc68hpUA01Pta-K-1">
          <mxGeometry x="10" y="40" width="510" height="230" as="geometry" />
        </mxCell>
        <mxCell id="GeGmlqc68hpUA01Pta-K-7" value="&lt;span style=&quot;font-size: 19px;&quot;&gt;📂 wrapper&lt;/span&gt;" style="swimlane;whiteSpace=wrap;html=1;startSize=30;strokeWidth=2;fillColor=light-dark(#FFFDE7,#042F2E);strokeColor=light-dark(#FBC02D,#10B981);" vertex="1" parent="GeGmlqc68hpUA01Pta-K-3">
          <mxGeometry x="10" y="40" width="290" height="180" as="geometry" />
        </mxCell>
        <mxCell id="GeGmlqc68hpUA01Pta-K-8" value="&lt;div&gt;&lt;font style=&quot;font-size: 19px;&quot;&gt;📦 gradle-wrapper.jar&lt;/font&gt;&lt;/div&gt;" style="rounded=0;whiteSpace=wrap;html=1;strokeWidth=2;" vertex="1" parent="GeGmlqc68hpUA01Pta-K-7">
          <mxGeometry x="45" y="40" width="200" height="60" as="geometry" />
        </mxCell>
        <mxCell id="GeGmlqc68hpUA01Pta-K-9" value="&lt;div&gt;&lt;span style=&quot;font-size: 19px;&quot;&gt;📝 gradle-wrapper.properties&lt;/span&gt;&lt;/div&gt;" style="rounded=0;whiteSpace=wrap;html=1;strokeWidth=2;" vertex="1" parent="GeGmlqc68hpUA01Pta-K-7">
          <mxGeometry x="10" y="110" width="270" height="60" as="geometry" />
        </mxCell>
        <mxCell id="GeGmlqc68hpUA01Pta-K-6" value="&lt;div&gt;&lt;span style=&quot;font-size: 19px;&quot;&gt;🧩 libs.versions.toml&lt;/span&gt;&lt;/div&gt;" style="rounded=0;whiteSpace=wrap;html=1;strokeWidth=2;fillColor=light-dark(#E0F7FA,#152B41);strokeColor=light-dark(#4DD0E1,#268BD2);" vertex="1" parent="GeGmlqc68hpUA01Pta-K-3">
          <mxGeometry x="310" y="100" width="190" height="60" as="geometry" />
        </mxCell>
        <mxCell id="GeGmlqc68hpUA01Pta-K-10" value="&lt;span style=&quot;font-size: 19px;&quot;&gt;📂 .gradle&lt;/span&gt;" style="swimlane;whiteSpace=wrap;html=1;startSize=30;strokeWidth=2;fillColor=light-dark(#FFEBEE,#470B0B);strokeColor=light-dark(#EF9A9A,#C62828);" vertex="1" parent="GeGmlqc68hpUA01Pta-K-1">
          <mxGeometry x="530" y="115" width="140" height="110" as="geometry" />
        </mxCell>
        <mxCell id="GeGmlqc68hpUA01Pta-K-11" value="&lt;div&gt;&lt;font style=&quot;font-size: 19px;&quot;&gt;📦 archivos internos&lt;/font&gt;&lt;/div&gt;" style="rounded=0;whiteSpace=wrap;html=1;strokeWidth=2;" vertex="1" parent="GeGmlqc68hpUA01Pta-K-10">
          <mxGeometry x="10" y="40" width="120" height="60" as="geometry" />
        </mxCell>
        <mxCell id="GeGmlqc68hpUA01Pta-K-13" value="&lt;font style=&quot;font-size: 19px;&quot;&gt;📝 .gitattributes&lt;/font&gt;" style="rounded=0;whiteSpace=wrap;html=1;strokeWidth=2;" vertex="1" parent="GeGmlqc68hpUA01Pta-K-1">
          <mxGeometry x="10" y="280" width="150" height="60" as="geometry" />
        </mxCell>
        <mxCell id="GeGmlqc68hpUA01Pta-K-14" value="&lt;font style=&quot;font-size: 19px;&quot;&gt;📝 .gitignore&lt;/font&gt;" style="rounded=0;whiteSpace=wrap;html=1;strokeWidth=2;" vertex="1" parent="GeGmlqc68hpUA01Pta-K-1">
          <mxGeometry x="10" y="350" width="150" height="60" as="geometry" />
        </mxCell>
        <mxCell id="GeGmlqc68hpUA01Pta-K-15" value="&lt;font style=&quot;font-size: 19px;&quot;&gt;⚙️ build.gradle.kts&lt;/font&gt;" style="rounded=0;whiteSpace=wrap;html=1;strokeWidth=2;fillColor=light-dark(#F9FBE7,#1A2A3F);strokeColor=light-dark(#C1E1C5,#5AE2A7);" vertex="1" parent="GeGmlqc68hpUA01Pta-K-1">
          <mxGeometry x="190" y="280" width="200" height="60" as="geometry" />
        </mxCell>
        <mxCell id="GeGmlqc68hpUA01Pta-K-16" value="&lt;font style=&quot;font-size: 19px;&quot;&gt;⚙️ settings.gradle.kts&lt;/font&gt;" style="rounded=0;whiteSpace=wrap;html=1;strokeWidth=2;fillColor=light-dark(#F9FBE7,#1A2A3F);strokeColor=light-dark(#C1E1C5,#5AE2A7);" vertex="1" parent="GeGmlqc68hpUA01Pta-K-1">
          <mxGeometry x="190" y="350" width="200" height="60" as="geometry" />
        </mxCell>
        <mxCell id="GeGmlqc68hpUA01Pta-K-17" value="&lt;font style=&quot;font-size: 19px;&quot;&gt;⚙️ gradle.properties&lt;/font&gt;" style="rounded=0;whiteSpace=wrap;html=1;strokeWidth=2;fillColor=light-dark(#FFF3E0,#3E2723);strokeColor=light-dark(#FFB74D,#FFCC80);" vertex="1" parent="GeGmlqc68hpUA01Pta-K-1">
          <mxGeometry x="190" y="420" width="200" height="60" as="geometry" />
        </mxCell>
        <mxCell id="GeGmlqc68hpUA01Pta-K-18" value="&lt;span style=&quot;font-size: 19px;&quot;&gt;🚀 gradlew&lt;/span&gt;" style="rounded=0;whiteSpace=wrap;html=1;strokeWidth=2;" vertex="1" parent="GeGmlqc68hpUA01Pta-K-1">
          <mxGeometry x="420" y="280" width="160" height="60" as="geometry" />
        </mxCell>
        <mxCell id="GeGmlqc68hpUA01Pta-K-19" value="&lt;span style=&quot;font-size: 19px;&quot;&gt;🚀 gradlew.bat&lt;/span&gt;" style="rounded=0;whiteSpace=wrap;html=1;strokeWidth=2;" vertex="1" parent="GeGmlqc68hpUA01Pta-K-1">
          <mxGeometry x="420" y="350" width="160" height="60" as="geometry" />
        </mxCell>
      </root>
    </mxGraphModel>
  </diagram>
</mxfile>
